<?xml version="1.0" standalone="no"?>
<!DOCTYPE svg PUBLIC "-//W3C//DTD SVG 20010904//EN"
 "http://www.w3.org/TR/2001/REC-SVG-20010904/DTD/svg10.dtd">
<svg version="1.0" xmlns="http://www.w3.org/2000/svg"
 width="256.000000pt" height="256.000000pt" viewBox="0 0 256.000000 256.000000"
 preserveAspectRatio="xMidYMid meet">
<metadata>
Created by potrace 1.14, written by Peter Selinger 2001-2017
</metadata>
<g transform="translate(0.000000,256.000000) scale(0.100000,-0.100000)"
fill="#000000" stroke="none">
<path d="M468 2165 c-4 -122 -14 -140 -78 -139 l-40 1 0 -98 c0 -129 0 -129
-136 -129 l-104 0 0 -355 0 -354 58 -3 57 -3 3 -53 3 -52 50 0 c44 0 51 -3 59
-26 6 -14 10 -66 10 -115 l0 -89 143 -1 c187 -1 191 -2 195 -62 l3 -47 -115 0
-116 0 0 -180 0 -180 183 2 182 3 -4 93 c-5 135 -9 132 191 132 l158 0 0 114
0 115 45 7 c52 7 151 1 162 -10 5 -4 10 -57 11 -117 l4 -109 152 0 c200 0 200
0 194 -121 -3 -48 -2 -92 2 -98 4 -8 59 -11 176 -9 l169 3 0 175 0 175 -100 5
c-55 3 -106 9 -112 13 -19 12 -16 62 5 80 16 14 43 17 175 17 l157 0 0 89 c0
49 4 101 10 115 8 23 15 26 59 26 l50 0 3 53 3 52 58 3 57 3 0 354 c0 273 -3
354 -12 358 -7 3 -54 3 -103 0 -115 -7 -118 -4 -125 126 l-5 96 -39 2 c-61 2
-70 19 -76 136 l-5 102 -172 3 -173 2 0 -44 c0 -70 -15 -76 -197 -76 -115 0
-153 -3 -154 -12 -1 -7 -2 -54 -3 -105 0 -50 -4 -95 -9 -99 -4 -4 -44 -9 -90
-12 -116 -5 -122 0 -124 120 -1 51 -2 96 -2 101 -1 4 -74 7 -164 7 -113 0
-167 4 -175 12 -7 7 -12 34 -12 60 l0 48 -169 0 -169 0 -4 -105z m197 -10 c39
-16 56 -47 48 -88 -6 -30 -18 -42 -52 -50 -37 -9 -71 10 -87 49 -34 81 10 124
91 89z m1290 0 c39 -16 56 -47 48 -88 -6 -30 -18 -42 -52 -50 -37 -9 -71 10
-87 49 -34 81 10 124 91 89z m-918 -123 c8 -5 13 -44 15 -112 l3 -105 225 0
225 0 3 105 c3 114 6 120 62 120 60 0 64 -8 70 -127 l5 -108 38 3 c53 5 77
-18 77 -74 0 -42 0 -42 35 -41 49 1 75 -26 75 -80 l0 -43 43 0 c75 0 80 -13
78 -195 l-2 -155 105 0 106 0 0 216 c0 129 4 223 10 235 8 14 21 19 50 19 74
0 70 15 70 -251 l0 -239 -55 0 -55 0 0 -55 0 -55 -115 0 -115 0 -1 -97 c-1
-142 3 -138 -111 -134 -128 4 -131 1 -126 -130 3 -91 2 -98 -17 -103 -27 -8
-180 -7 -199 0 -13 5 -16 25 -16 119 l0 114 -207 3 c-115 2 -223 1 -240 -1
l-33 -3 0 -119 0 -119 -105 0 c-126 0 -125 -1 -125 129 0 110 -1 111 -134 111
l-96 0 0 103 c0 67 -4 107 -12 115 -8 8 -49 12 -120 12 l-108 0 0 55 0 55 -55
0 -55 0 1 232 c0 146 4 238 11 245 6 7 30 13 54 13 33 0 46 -5 54 -19 6 -12
10 -106 10 -235 l0 -216 88 0 c133 0 132 -1 125 169 l-6 139 27 27 c23 23 34
26 62 22 l34 -6 0 43 c0 52 26 80 75 80 31 0 34 3 39 39 9 54 47 90 86 82 l30
-7 0 100 c0 78 4 104 16 116 16 17 80 21 101 8z m-339 -124 c7 -7 12 -28 12
-48 0 -48 -29 -75 -79 -75 -38 0 -38 0 -37 -36 1 -54 -25 -79 -84 -79 -58 0
-60 4 -60 148 l0 102 118 0 c78 0 122 -4 130 -12z m1412 -85 c0 -59 -5 -108
-13 -123 -15 -30 -54 -45 -91 -36 -22 5 -25 10 -20 31 14 58 -43 115 -101 101
-25 -6 -25 -6 -25 59 l0 65 125 0 125 0 0 -97z m-146 -1333 c22 -8 26 -15 26
-53 0 -57 -26 -82 -82 -81 -46 2 -58 14 -58 65 0 60 54 92 114 69z m-1266 -12
c7 -7 12 -31 12 -55 0 -50 -17 -63 -83 -63 l-45 0 -4 60 c-2 34 1 62 7 64 22
10 102 5 113 -6z"/>
<path d="M830 1270 l0 -170 105 0 105 0 0 170 0 170 -105 0 -105 0 0 -170z"/>
<path d="M1520 1270 l0 -170 105 0 105 0 0 170 0 170 -105 0 -105 0 0 -170z"/>
</g>
</svg>
